<?xml version="1.0" standalone="no"?>
<!DOCTYPE svg PUBLIC "-//W3C//DTD SVG 20010904//EN"
 "http://www.w3.org/TR/2001/REC-SVG-20010904/DTD/svg10.dtd">
<svg version="1.0" xmlns="http://www.w3.org/2000/svg"
 width="60.000000pt" height="60.000000pt" viewBox="0 0 60.000000 60.000000"
 preserveAspectRatio="xMidYMid meet">

<g transform="translate(0.000000,60.000000) scale(0.100000,-0.100000)"
fill="#000000" stroke="none">
<path d="M320 381 c0 -10 -11 -30 -25 -45 -19 -20 -25 -38 -25 -71 0 -43 1
-44 40 -55 70 -19 84 -6 93 90 2 21 -3 26 -26 28 -23 3 -27 7 -22 23 7 20 -9
49 -26 49 -5 0 -9 -8 -9 -19z"/>
<path d="M200 265 c0 -41 2 -45 25 -45 23 0 25 4 25 45 0 41 -2 45 -25 45 -23
0 -25 -4 -25 -45z m30 -25 c0 -5 -4 -10 -10 -10 -5 0 -10 5 -10 10 0 6 5 10
10 10 6 0 10 -4 10 -10z"/>
</g>
</svg>
