<?xml version="1.0" standalone="no"?>
<!DOCTYPE svg PUBLIC "-//W3C//DTD SVG 20010904//EN"
 "http://www.w3.org/TR/2001/REC-SVG-20010904/DTD/svg10.dtd">
<svg version="1.0" xmlns="http://www.w3.org/2000/svg"
 width="60.000000pt" height="60.000000pt" viewBox="0 0 60.000000 60.000000"
 preserveAspectRatio="xMidYMid meet">

<g transform="translate(0.000000,60.000000) scale(0.100000,-0.100000)"
fill="#000000" stroke="none">
<path d="M287 393 c-11 -10 -8 -73 3 -73 6 0 10 -7 10 -17 0 -15 1 -15 18 0
10 10 31 17 45 17 25 0 27 3 27 40 l0 40 -48 0 c-27 0 -52 -3 -55 -7z"/>
<path d="M212 318 c-14 -18 1 -50 38 -81 32 -27 64 -35 74 -18 8 12 -21 34
-34 26 -16 -10 -51 25 -45 45 7 23 -19 45 -33 28z"/>
</g>
</svg>
