<?xml version="1.0" standalone="no"?>
<!DOCTYPE svg PUBLIC "-//W3C//DTD SVG 20010904//EN"
 "http://www.w3.org/TR/2001/REC-SVG-20010904/DTD/svg10.dtd">
<svg version="1.0" xmlns="http://www.w3.org/2000/svg"
 width="60.000000pt" height="60.000000pt" viewBox="0 0 60.000000 60.000000"
 preserveAspectRatio="xMidYMid meet">

<g transform="translate(0.000000,60.000000) scale(0.100000,-0.100000)"
fill="#000000" stroke="none" id='gd'>
<path d="M280 386 c-6 -8 -10 -25 -8 -38 2 -18 9 -23 33 -23 24 0 31 5 33 23
4 25 -13 52 -33 52 -7 0 -18 -7 -25 -14z"/>
<path d="M204 292 c-15 -9 -3 -37 16 -37 19 0 31 28 16 37 -6 4 -13 8 -16 8
-3 0 -10 -4 -16 -8z"/>
<path d="M374 292 c-15 -9 -3 -37 16 -37 19 0 31 28 16 37 -6 4 -13 8 -16 8
-3 0 -10 -4 -16 -8z"/>
<path d="M297 276 c-4 -9 -14 -16 -24 -16 -13 0 -14 -3 -5 -12 7 -7 12 -19 12
-27 0 -10 9 -16 25 -16 16 0 25 6 25 15 0 9 5 21 12 28 9 9 8 12 -5 12 -9 0
-20 7 -25 16 -8 15 -10 15 -15 0z"/>
</g>
</svg>
